<svg xmlns="http://www.w3.org/2000/svg" xmlns:xlink="http://www.w3.org/1999/xlink" width="500" zoomAndPan="magnify" viewBox="0 0 375 374.999991" height="500" preserveAspectRatio="xMidYMid meet" version="1.0"><path fill="#ffffff" d="M 375 179.78125 L 375 187.5 C 375 290.875 290.875 375 187.5 375 C 84.125 375 0 290.875 0 187.5 C 0 84.125 84.125 0 187.5 0 C 230.429688 0 270.757812 14.136719 304.230469 40.761719 C 326.085938 58.191406 343.691406 80.308594 355.921875 105.199219 L 341.957031 111.617188 C 313.597656 53.597656 254.363281 15.4375 187.414062 15.4375 C 92.535156 15.4375 15.351562 92.621094 15.351562 187.5 C 15.351562 201.984375 17.171875 216.03125 20.554688 229.476562 L 110.660156 77.273438 L 187.5 165.039062 L 264.339844 77.273438 L 308.828125 153.765625 L 290.964844 153.765625 L 261.824219 103.636719 L 187.585938 188.539062 L 113.351562 103.636719 L 26.972656 249.335938 C 51.863281 313.773438 114.476562 359.5625 187.5 359.5625 C 279.777344 359.5625 355.3125 286.539062 359.390625 195.21875 L 236.671875 195.21875 L 248.726562 179.78125 Z M 375 179.78125 " fill-opacity="1" fill-rule="nonzero"/></svg>