<svg xmlns="http://www.w3.org/2000/svg" xmlns:xlink="http://www.w3.org/1999/xlink" width="500" zoomAndPan="magnify" viewBox="0 0 375 374.999991" height="500" preserveAspectRatio="xMidYMid meet" version="1.0"><defs><clipPath id="02ae1fe1b4"><path d="M 0 74.296875 L 375 74.296875 L 375 300.796875 L 0 300.796875 Z M 0 74.296875 " clip-rule="nonzero"/></clipPath></defs><g clip-path="url(#02ae1fe1b4)"><path fill="#000000" d="M 88.484375 133.40625 L 159.214844 133.40625 L 159.214844 139.03125 L 94.964844 139.03125 L 94.964844 181.355469 L 155.382812 181.355469 L 155.382812 186.984375 L 94.964844 186.984375 L 94.964844 233.453125 L 159.945312 233.453125 L 159.945312 239.078125 L 88.484375 239.078125 Z M 165.550781 133.40625 L 173.0625 133.40625 L 206.367188 179.875 L 240.402344 133.40625 L 286.699219 74.378906 L 210.636719 184.761719 L 249.835938 239.078125 L 242.019531 239.078125 L 206.367188 189.640625 L 170.558594 239.078125 L 162.898438 239.078125 L 202.382812 184.761719 Z M 252.632812 139.03125 L 252.632812 133.40625 L 333.238281 133.40625 L 333.238281 139.03125 L 296.101562 139.03125 L 296.101562 239.078125 L 289.621094 239.078125 L 289.621094 139.03125 L 252.632812 139.027344 Z M 0 133.40625 L 8.105469 133.40625 L 119.855469 300.703125 L 73.679688 239.082031 L 6.78125 141.402344 L 6.488281 239.082031 L 0.00390625 239.082031 L 0.00390625 133.40625 Z M 332.578125 231.761719 C 331.257812 231.761719 330.261719 230.726562 330.261719 229.402344 C 330.261719 228.074219 331.257812 227.046875 332.578125 227.046875 C 333.917969 227.046875 334.898438 228.074219 334.898438 229.402344 C 334.898438 230.726562 333.917969 231.761719 332.578125 231.761719 Z M 338.949219 225.5625 L 342.421875 225.5625 C 342.464844 227.445312 343.84375 228.703125 345.855469 228.703125 C 348.113281 228.703125 349.386719 227.347656 349.386719 224.804688 L 349.386719 208.695312 L 352.925781 208.695312 L 352.925781 224.820312 C 352.925781 229.402344 350.273438 232.039062 345.894531 232.039062 C 341.777344 232.039062 338.949219 229.480469 338.949219 225.5625 Z M 357.546875 225.355469 L 361.046875 225.355469 C 361.339844 227.523438 363.457031 228.894531 366.503906 228.894531 C 369.339844 228.894531 371.417969 227.429688 371.417969 225.40625 C 371.417969 223.671875 370.09375 222.625 367.082031 221.914062 L 364.152344 221.203125 C 360.035156 220.242188 358.160156 218.25 358.160156 214.898438 C 358.160156 210.839844 361.472656 208.144531 366.4375 208.144531 C 371.058594 208.144531 374.429688 210.839844 374.632812 214.679688 L 371.199219 214.679688 C 370.867188 212.578125 369.039062 211.265625 366.386719 211.265625 C 363.597656 211.265625 361.734375 212.613281 361.734375 214.664062 C 361.734375 216.292969 362.9375 217.222656 365.902344 217.917969 L 368.40625 218.535156 C 373.074219 219.625 375 221.523438 375 224.945312 C 375 229.304688 371.625 232.039062 366.234375 232.039062 C 361.1875 232.039062 357.796875 229.4375 357.546875 225.355469 Z M 357.546875 225.355469 " fill-opacity="1" fill-rule="nonzero"/></g></svg>