<svg xmlns="http://www.w3.org/2000/svg" xmlns:xlink="http://www.w3.org/1999/xlink" width="500" zoomAndPan="magnify" viewBox="0 0 375 374.999991" height="500" preserveAspectRatio="xMidYMid meet" version="1.0"><defs><clipPath id="9ecee74b0e"><path d="M 0.0625 72.953125 L 374.9375 72.953125 L 374.9375 297.546875 L 0.0625 297.546875 Z M 0.0625 72.953125 " clip-rule="nonzero"/></clipPath></defs><g clip-path="url(#9ecee74b0e)"><path fill="#38bdf8" d="M 187.5 72.953125 C 137.515625 72.953125 106.277344 97.910156 93.78125 147.816406 C 112.523438 122.863281 134.394531 113.503906 159.382812 119.746094 C 173.644531 123.300781 183.835938 133.636719 195.117188 145.066406 C 213.492188 163.691406 234.761719 185.25 281.21875 185.25 C 331.203125 185.25 362.441406 160.296875 374.9375 110.386719 C 356.195312 135.339844 334.324219 144.699219 309.335938 138.460938 C 295.074219 134.902344 284.882812 124.570312 273.601562 113.136719 C 255.226562 94.511719 233.957031 72.953125 187.5 72.953125 Z M 93.78125 185.25 C 43.796875 185.25 12.558594 210.203125 0.0625 260.113281 C 18.804688 235.160156 40.675781 225.800781 65.664062 232.039062 C 79.925781 235.601562 90.117188 245.929688 101.398438 257.363281 C 119.773438 275.988281 141.042969 297.546875 187.5 297.546875 C 237.484375 297.546875 268.722656 272.589844 281.21875 222.683594 C 262.476562 247.636719 240.605469 256.996094 215.617188 250.753906 C 201.355469 247.199219 191.164062 236.863281 179.882812 225.433594 C 161.507812 206.808594 140.238281 185.25 93.78125 185.25 Z M 93.78125 185.25 " fill-opacity="1" fill-rule="evenodd"/></g></svg>